<?xml version="1.0" encoding="UTF-8" standalone="no"?>
<svg width="50px" height="50px" viewBox="0 0 50 50" version="1.1" xmlns="http://www.w3.org/2000/svg" xmlns:xlink="http://www.w3.org/1999/xlink">
    <!-- Generator: Sketch 39.1 (31720) - http://www.bohemiancoding.com/sketch -->
    <title>1484881167_online_social_media_facebook</title>
    <desc>Created with Sketch.</desc>
    <defs></defs>
    <g id="Page-1" stroke="none" stroke-width="1" fill="none" fill-rule="evenodd">
        <g id="1484881167_online_social_media_facebook">
            <g id="Flat_copy">
                <path d="M0,25 C0,38.80625 11.1921875,50 25,50 C38.8078125,50 50,38.80625 50,25 C50,11.1921875 38.8078125,0 25,0 C11.1921875,0 0,11.1921875 0,25 Z" id="Shape" fill="#0AA3B6"></path>
                <path d="M21.390625,38.9109375 L27.1390625,38.9109375 L27.1390625,24.9984375 L30.9734375,24.9984375 L31.48125,20.2046875 L27.1390625,20.2046875 L27.1453125,17.8046875 C27.1453125,16.5546875 27.2640625,15.884375 29.0578125,15.884375 L31.4546875,15.884375 L31.4546875,11.0890625 L27.61875,11.0890625 C23.0109375,11.0890625 21.390625,13.415625 21.390625,17.3265625 L21.390625,20.2046875 L18.51875,20.2046875 L18.51875,25 L21.390625,25 L21.390625,38.9109375 L21.390625,38.9109375 Z" id="Shape" fill="#FFFFFF"></path>
            </g>
        </g>
    </g>
</svg>