<?xml version="1.0" encoding="UTF-8" standalone="no"?>
<svg width="50px" height="50px" viewBox="0 0 50 50" version="1.1" xmlns="http://www.w3.org/2000/svg" xmlns:xlink="http://www.w3.org/1999/xlink">
    <!-- Generator: Sketch 39.1 (31720) - http://www.bohemiancoding.com/sketch -->
    <title>1484881181_instagram_online_social_media_photo</title>
    <desc>Created with Sketch.</desc>
    <defs></defs>
    <g id="Page-1" stroke="none" stroke-width="1" fill="none" fill-rule="evenodd">
        <g id="1484881181_instagram_online_social_media_photo">
            <g id="Flat_copy">
                <path d="M25,0 C11.1921875,0 0,11.1921875 0,25 C0,38.80625 11.1921875,50 25,50 C38.8078125,50 50,38.80625 50,25 C50,11.1921875 38.8078125,0 25,0 L25,0 Z" id="Shape" fill="#0AA3B6"></path>
                <path d="M34.4640625,12.390625 L15.5359375,12.390625 C13.7546875,12.390625 12.38125,13.7640625 12.38125,15.5453125 L12.38125,34.471875 C12.38125,36.253125 13.7546875,37.6265625 15.5359375,37.6265625 L34.4625,37.6265625 C36.24375,37.6265625 37.6171875,36.253125 37.6171875,34.471875 L37.6171875,15.5453125 C37.61875,13.7625 36.24375,12.390625 34.4640625,12.390625 L34.4640625,12.390625 Z M25.01875,20.0515625 C27.8171875,20.0515625 30.0859375,22.25 30.0859375,24.9609375 C30.0859375,27.671875 27.8171875,29.8703125 25.01875,29.8703125 C22.221875,29.8703125 19.953125,27.6703125 19.953125,24.9609375 C19.953125,22.2484375 22.221875,20.0515625 25.01875,20.0515625 L25.01875,20.0515625 Z M34.4640625,33.6828125 C34.4640625,34.2359375 34.228125,34.471875 33.675,34.471875 L16.325,34.471875 C15.7734375,34.471875 15.5359375,34.2359375 15.5359375,33.6828125 L15.5359375,22.6421875 L17.5015625,23.0703125 C17.290625,23.75625 17.1765625,24.48125 17.1765625,25.234375 C17.1765625,29.428125 20.6890625,32.8328125 25.0171875,32.8328125 C29.3484375,32.8328125 32.859375,29.4296875 32.859375,25.234375 C32.859375,24.48125 32.7453125,23.75625 32.534375,23.0703125 L34.4625,22.6421875 L34.4625,33.6828125 L34.4640625,33.6828125 Z M34.4640625,19.4875 C34.4640625,19.9234375 34.1109375,20.2765625 33.675,20.2765625 L30.5203125,20.2765625 C30.084375,20.2765625 29.73125,19.9234375 29.73125,19.4875 L29.73125,16.3328125 C29.73125,15.896875 30.084375,15.54375 30.5203125,15.54375 L33.675,15.54375 C34.1109375,15.54375 34.4640625,15.896875 34.4640625,16.3328125 L34.4640625,19.4875 L34.4640625,19.4875 Z" id="Shape" fill="#FFFFFF"></path>
            </g>
        </g>
    </g>
</svg>