<?xml version="1.0" encoding="UTF-8" standalone="no"?>
<svg width="50px" height="50px" viewBox="0 0 50 50" version="1.1" xmlns="http://www.w3.org/2000/svg" xmlns:xlink="http://www.w3.org/1999/xlink">
    <!-- Generator: Sketch 39.1 (31720) - http://www.bohemiancoding.com/sketch -->
    <title>1484881201_twitter_online_social_media</title>
    <desc>Created with Sketch.</desc>
    <defs></defs>
    <g id="Page-1" stroke="none" stroke-width="1" fill="none" fill-rule="evenodd">
        <g id="1484881201_twitter_online_social_media">
            <g id="Flat_copy">
                <path d="M25,0 C11.1921875,0 0,11.1921875 0,25 C0,38.80625 11.1921875,50 25,50 C38.8078125,50 50,38.80625 50,25 C50,11.1921875 38.8078125,0 25,0 L25,0 Z" id="Shape" fill="#0AA3B6"></path>
                <path d="M28.478125,13.884375 C25.99375,14.7890625 24.4234375,17.1203125 24.6015625,19.671875 L24.6609375,20.65625 L23.6671875,20.5359375 C20.05,20.0734375 16.8890625,18.50625 14.2046875,15.8734375 L12.8921875,14.5671875 L12.55625,15.53125 C11.840625,17.68125 12.2984375,19.953125 13.7890625,21.48125 C14.584375,22.325 14.4046875,22.4453125 13.034375,21.94375 C12.5578125,21.7828125 12.1390625,21.6625 12.1,21.7234375 C11.9609375,21.8640625 12.4375,23.6921875 12.815625,24.4171875 C13.3328125,25.4234375 14.3859375,26.40625 15.5390625,26.990625 L16.5140625,27.453125 L15.359375,27.4703125 C14.246875,27.4703125 14.20625,27.490625 14.3265625,27.9140625 C14.7234375,29.2203125 16.29375,30.6078125 18.04375,31.2109375 L19.2765625,31.6328125 L18.203125,32.2765625 C16.6125,33.203125 14.74375,33.725 12.875,33.7625 C11.9796875,33.7828125 11.24375,33.8625 11.24375,33.9234375 C11.24375,34.1234375 13.6703125,35.2484375 15.0796875,35.6921875 C19.3140625,36.9984375 24.34375,36.434375 28.1203125,34.2046875 C30.8046875,32.6171875 33.4875,29.4609375 34.740625,26.4046875 C35.4171875,24.778125 36.0921875,21.803125 36.0921875,20.3765625 C36.0921875,19.4515625 36.1515625,19.33125 37.2640625,18.2265625 C37.9203125,17.5828125 38.5359375,16.8796875 38.65625,16.6796875 C38.85625,16.296875 38.834375,16.296875 37.821875,16.6390625 C36.1328125,17.2421875 35.89375,17.1625 36.7296875,16.2578125 C37.3453125,15.6140625 38.08125,14.4484375 38.08125,14.1078125 C38.08125,14.0484375 37.7828125,14.1484375 37.4453125,14.328125 C37.0875,14.5296875 36.2921875,14.83125 35.6953125,15.0109375 L34.621875,15.353125 L33.6484375,14.6875 C33.1109375,14.3265625 32.3578125,13.9234375 31.959375,13.803125 C30.94375,13.521875 29.39375,13.5625 28.478125,13.884375 L28.478125,13.884375 Z" id="Shape" fill="#FFFFFF"></path>
            </g>
        </g>
    </g>
</svg>