<?xml version="1.0" ?><!DOCTYPE svg  PUBLIC '-//W3C//DTD SVG 1.0//EN'  'http://www.w3.org/TR/2001/REC-SVG-20010904/DTD/svg10.dtd'><svg height="50" style="overflow:visible;enable-background:new 0 0 32 32" viewBox="0 0 32 32" width="50" xml:space="preserve" xmlns="http://www.w3.org/2000/svg" xmlns:xlink="http://www.w3.org/1999/xlink"><g><g id="WordPress_1_"><g id="WordPress_2_"><path d="M16,32c8.8,0,16-7.2,16-16c0-8.8-7.2-16-16-16C7.2,0,0,7.2,0,16        C0,24.8,7.2,32,16,32" id="BG" style="fill:#EE4B28;"/><path d="M8,16c0,3.2,1.8,5.9,4.5,7.2L8.7,12.7C8.2,13.7,8,14.8,8,16         M21.4,15.6c0-1-0.4-1.7-0.7-2.2c-0.4-0.7-0.8-1.2-0.8-1.9c0-0.7,0.6-1.4,1.3-1.4c0,0,0.1,0,0.1,0C20,8.8,18.1,8,16,8        c-2.8,0-5.3,1.4-6.7,3.6c0.2,0,0.4,0,0.5,0c0.8,0,2.1-0.1,2.1-0.1c0.4,0,0.5,0.6,0,0.7c0,0-0.4,0-0.9,0.1l2.9,8.7l1.8-5.3        l-1.2-3.4c-0.4,0-0.8-0.1-0.8-0.1c-0.4,0-0.4-0.7,0.1-0.7c0,0,1.3,0.1,2.1,0.1c0.8,0,2.1-0.1,2.1-0.1c0.4,0,0.5,0.6,0.1,0.7        c0,0-0.4,0-0.9,0.1l2.9,8.6l0.8-2.7C21.2,17.1,21.4,16.3,21.4,15.6 M16.1,16.7l-2.4,7c0.7,0.2,1.5,0.3,2.3,0.3        c0.9,0,1.8-0.2,2.7-0.5c0,0,0-0.1-0.1-0.1L16.1,16.7z M23,12.2c0,0.3,0.1,0.5,0.1,0.8c0,0.8-0.2,1.7-0.6,2.9L20,22.9        c2.4-1.4,4-4,4-6.9C24,14.6,23.6,13.3,23,12.2" id="WordPress" style="fill:#FFF;"/></g></g></g></svg>
